# xmcd
#
# Track frame offsets:
#	202
#	15612
#	26930
#	41793
#	58414
#	69038
#	86970
#	103020
#	121276
#	138023
#
# Disc length: 2147 seconds
#
# Revision: 0
# Processed by: cddbd v1.5.2PL0 Copyright (c) Steve Scherf et al.
# Submitted via: EasyCDDAExtractor 11.1.0.1
#
DISCID=8908610a
DTITLE=Patsy McGlamry-Dean - Endings
DYEAR=1900
DGENRE=country
TTITLE0=There's an old familar memories in thes place
TTITLE1=Endings
TTITLE2=He's a branded soul
TTITLE3=It's night in New York City
TTITLE4=When summer comes
TTITLE5=So easy and so free
TTITLE6=Paper houses
TTITLE7=Fly on mighty eagle
TTITLE8=The sparkle and the sheen
TTITLE9=Ballad of the watchmaker
EXTD=
EXTT0=
EXTT1=
EXTT2=
EXTT3=
EXTT4=
EXTT5=
EXTT6=
EXTT7=
EXTT8=
EXTT9=
PLAYORDER=
